<?xml version="1.0" encoding="UTF-8"?>
 <!DOCTYPE svg PUBLIC "-//W3C//DTD SVG 1.1//EN"
   "http://www.w3.org/Graphics/SVG/1.1/DTD/svg11.dtd">
 <svg xmlns="http://www.w3.org/2000/svg" version="1.1"
   xmlns:xlink="http://www.w3.org/1999/xlink" width="1063" height="638">
  <defs>
    <linearGradient id="lg0">
      <stop stop-color="#3333ff" offset="0" />
      <stop stop-color="#3f3fff" stop-opacity="0" offset="1" />
    </linearGradient>
    <linearGradient id="lg1">
      <stop stop-color="#111111" offset="0" />
      <stop stop-color="#111111" stop-opacity="0" offset="1" />
    </linearGradient>
    <linearGradient x1="2032.7623" y1="891.97552" x2="1343.3806" y2="1415.3429" id="lg2" xlink:href="#lg0" gradientUnits="userSpaceOnUse" gradientTransform="matrix(0.509696,0,0,0.509696,-172.9,-246.573)" />
    <linearGradient x1="846.62628" y1="-297.63541" x2="-101.63694" y2="180.4917" id="linearGradient146" xlink:href="#lg1" gradientUnits="userSpaceOnUse" gradientTransform="matrix(0.509696,0,0,0.509696,87.5388,303.063)" />
    <linearGradient x1="2032.7623" y1="891.97552" x2="1343.3806" y2="1415.3429" id="linearGradient192" xlink:href="#lg0" gradientUnits="userSpaceOnUse" gradientTransform="matrix(0.509696,0,0,0.509696,-172.9,-246.573)" />
  </defs>
  <rect width="410.8837" height="410.8837" x="43.850986" y="58.39772" style="fill:none;stroke:#444444;stroke-width:3.57" />
  <text x="248.314" y="565.72498" style="font-size:105.56px;text-align:center;text-anchor:middle;font-family:DejaVu Serif"><tspan x="248.314" y="565.72498" style="font-family:Bitstream Vera Serif">BITMAP</tspan></text>
  <text x="248.767" y="610.38702" style="font-size:44.88px;text-align:center;text-anchor:middle;font-family:Bitstream Vera Serif"><tspan x="248.767" y="610.38702">.jpeg   .gif   .png</tspan></text>
  <rect width="485.54321" height="410.66257" x="531.85742" y="60.428307" style="fill:none;fill-rule:evenodd;stroke:#404091;stroke-width:3.5678699" />
  <text x="775.91803" y="564.22998" style="font-size:105.56199646px;text-align:center;text-anchor:middle;fill:#00006c;fill-opacity:0.75;font-family:DejaVu Serif"><tspan x="775.91803" y="564.22998" style="font-family:Bitstream Vera Serif">OUTLINE</tspan></text>
  <path d="M 747.84667,137.78794 C 838.28805,271.50362 922.81705,208.06295 935.72475,291.24563 919.94869,364.38904 788.00379,421.75635 651.75629,430.36149 712,377.3 594.02,393.70502 624.50687,347.1788 700.51865,309.89 732.07061,249.65429 747.84667,137.78794 z" fill="url(#linearGradient192)" />
  <path d="M 698.28438,402.12574 698.28438,369.63245 709.27476,369.72802 C 709.59329,380.55914 712.73112,388.57096 718.68826,393.7635 724.64531,398.95606 733.70839,401.55234 745.8775,401.55233 757.21822,401.55234 765.86716,399.30648 771.82435,394.81475 777.78135,390.32305 780.7599,383.77661 780.76,375.17542 780.7599,368.29453 778.96003,363.00641 775.36038,359.31105 771.76054,355.61579 764.16285,352.01604 752.56729,348.51181 L 733.7403,342.87327 C 720.10582,338.73203 710.50119,333.57134 704.92639,327.39117 699.35154,321.21116 696.56413,312.73743 696.56415,301.96994 696.56413,289.86472 700.86471,280.46716 709.46589,273.77723 718.06702,267.08758 730.1405,263.74269 745.68636,263.74254 752.31237,263.74269 759.57557,264.45945 767.47598,265.89283 775.37621,267.3265 783.78623,269.41308 792.70607,272.15257 L 792.70607,302.54336 781.90682,302.54336 C 780.82361,292.47692 777.46279,285.1978 771.82435,280.70595 766.18572,276.21436 757.60049,273.96851 746.06863,273.96837 736.00203,273.96851 728.34063,276.02323 723.08441,280.13254 717.8281,284.24211 715.19997,290.21514 715.20001,298.05164 715.19997,304.86896 717.17505,310.22079 721.12525,314.10714 725.07537,317.99369 733.45354,321.84828 746.25977,325.67093 L 763.93994,330.9272 C 776.87345,334.81373 786.0958,339.76736 791.60703,345.78811 797.11803,351.80898 799.87358,359.88451 799.8737,370.01472 799.87358,383.84032 795.44558,394.25728 786.58968,401.26562 777.73357,408.27398 764.54513,411.77816 747.02432,411.77816 739.18764,411.77816 731.20768,410.98175 723.08441,409.38895 714.96105,407.79614 706.69438,405.37507 698.28438,402.12574 L 698.28438,402.12574 z" style="font-size:195.72px;text-align:start;text-anchor:start;fill:#0000ae;fill-opacity:0.75;font-family:DejaVu Serif" />
  <path d="M 750.09771,331.06591 750.09771,271.14295 770.36577,271.31919 C 770.9532,291.29357 776.73987,306.06867 787.72581,315.64456 798.71161,325.22051 815.4254,330.00846 837.86723,330.00845 858.78138,330.00846 874.73145,325.86673 885.71749,317.58325 896.70318,309.29981 902.19612,297.22711 902.1963,281.3651 902.19612,268.67561 898.87686,258.92345 892.23851,252.10859 885.59982,245.29392 871.58844,238.6554 850.20432,232.19302 L 815.48424,221.79462 C 790.34002,214.15751 772.62752,204.64034 762.34667,193.24309 752.06573,181.84614 746.92529,166.21918 746.92532,146.36218 746.92529,124.03816 754.85626,106.70751 770.71826,94.370194 786.58015,82.033375 808.84563,75.86484 837.51475,75.864572 849.7342,75.86484 863.12873,77.186669 877.69838,79.830063 892.26771,82.473984 907.77717,86.321975 924.2268,91.374046 L 924.2268,147.41964 904.31123,147.41964 C 902.31361,128.85549 896.1157,115.43158 885.71749,107.14789 875.31893,98.864662 859.48636,94.722931 838.21972,94.722682 819.65525,94.722931 805.52637,98.512174 795.83304,106.09042 786.13954,113.66914 781.29284,124.68438 781.2929,139.13618 781.29284,151.70844 784.93521,161.5781 792.22003,168.74517 799.5047,175.9126 814.95541,183.0211 838.57221,190.0707 L 871.17735,199.76412 C 895.02887,206.93151 912.0364,216.06682 922.2,227.17006 932.36319,238.27354 937.44488,253.16615 937.44511,271.84792 937.44488,297.3446 929.27892,316.55518 912.94719,329.47972 896.61506,342.40428 872.29341,348.86655 839.98216,348.86656 825.53004,348.86655 810.81368,347.39786 795.83304,344.46046 780.85223,341.52306 765.60714,337.05822 750.09771,331.06591 L 750.09771,331.06591 z" style="font-size:360.95px;text-align:start;text-anchor:start;fill:#00005f;font-family:DejaVu Serif" />
  <path d="M 612.85204,425.05012 612.85204,405.42134 619.49119,405.47907 C 619.68361,412.02201 621.57914,416.86185 625.17777,419.9986 628.77635,423.13536 634.25124,424.70374 641.60244,424.70373 648.45323,424.70374 653.67794,423.34704 657.27661,420.63365 660.87516,417.92027 662.67446,413.96565 662.67452,408.76978 662.67446,404.61312 661.58718,401.41863 659.41268,399.18631 657.23806,396.95405 652.6484,394.77949 645.64366,392.66263 L 634.27051,389.25645 C 626.0341,386.75479 620.23206,383.63728 616.8644,379.90391 613.4967,376.17065 611.81286,371.05177 611.81287,364.54728 611.81286,357.23466 614.41079,351.55771 619.60666,347.51642 624.80249,343.47528 632.09592,341.45467 641.48698,341.45459 645.48967,341.45467 649.87728,341.88766 654.64981,342.75355 659.42224,343.61961 664.50263,344.88009 669.89099,346.53498 L 669.89099,364.89367 663.3673,364.89367 C 662.71295,358.81266 660.68272,354.41543 657.27661,351.70197 653.87038,348.98866 648.68415,347.63196 641.71791,347.63188 635.6368,347.63196 631.00864,348.87319 627.83343,351.35558 624.65816,353.83812 623.07054,357.44634 623.07056,362.18027 623.07054,366.29853 624.26366,369.53151 626.64993,371.8792 629.03614,374.22702 634.09729,376.55553 641.83337,378.86474 L 652.51374,382.03999 C 660.32671,384.38779 665.89781,387.38021 669.22707,391.01727 672.5562,394.6544 674.2208,399.53273 674.22087,405.65226 674.2208,414.00414 671.54589,420.29689 666.19616,424.53054 660.84629,428.7642 652.87932,430.88103 642.29522,430.88103 637.56119,430.88103 632.74059,430.39993 627.83343,429.43773 622.92621,428.47554 617.93242,427.013 612.85204,425.05012 L 612.85204,425.05012 z" style="font-size:118.24px;text-align:start;text-anchor:start;fill:#5757ff;font-family:DejaVu Serif" />
  <text x="776.14099" y="610.38702" style="font-size:44.88px;text-align:center;text-anchor:middle;fill:#00005f;font-family:Bitstream Vera Serif"><tspan x="776.14099" y="610.38702"> .svg</tspan></text>
  <path d="M 278.5,131.0625 266.5625,144.6875 251.25,144.6875 239.4375,159.125 237.625,158.3125 226.40625,172.21875 224.0625,172.21875 224,171.9375 73.1875,362.34375 83.15625,383.875 119.84375,412.125 101.34375,430.5625 348.03457,431.39873 372.4375,412.71875 404.46875,388.3125 403.84375,329.5625 335.15625,292.59375 290.6875,266.53125 243.90625,230.15625 242.90625,204.5625 246.67186,174.66601 278.5,158.3125 278.5,131.0625 z" fill="url(#linearGradient146)" />
  <path d="M 251.24997,417.23801 223.99515,417.23801 223.99515,349.10094 251.24997,349.10094 251.24997,376.35577 264.8774,376.35577 264.8774,389.98319 278.50481,389.98319 278.50481,403.6106 360.26931,403.6106 360.26931,389.98319 373.89672,389.98319 373.89672,362.72835 387.52413,362.72835 387.52413,349.10094 373.89672,349.10094 373.89672,321.84611 346.64188,321.84611 346.64188,308.21869 305.75964,308.21869 305.75964,294.59128 264.8774,294.59128 264.8774,280.96386 251.24997,280.96386 251.24997,267.33645 237.62256,267.33645 237.62256,253.70903 223.99515,253.70903 223.99515,171.94453 237.62256,171.94453 237.62256,158.31712 251.24997,158.31712 251.24997,144.6897 278.50481,144.6897 278.50481,131.06229 373.89672,131.06229 373.89672,144.6897 401.15155,144.6897 401.15155,158.31712 414.77896,158.31712 414.77896,212.82678 373.89672,212.82678 373.89672,185.57195 360.26931,185.57195 360.26931,171.94453 333.01447,171.94453 333.01447,158.31712 292.13222,158.31712 292.13222,171.94453 278.50481,171.94453 278.50481,185.57195 264.8774,185.57195 264.8774,226.45419 278.50481,226.45419 278.50481,240.08161 305.75964,240.08161 305.75964,253.70903 346.64188,253.70903 346.64188,267.33645 387.52413,267.33645 387.52413,280.96386 401.15155,280.96386 401.15155,294.59128 414.77896,294.59128 414.77896,308.21869 428.40638,308.21869 428.40638,389.98319 414.77896,389.98319 414.77896,403.6106 401.15155,403.6106 401.15155,417.23801 373.89672,417.23801 373.89672,430.86544 251.24997,430.86544 251.24997,417.23801 z" fill="#c8c8c8" />
  <path d="M 251.24997,417.23801 223.99515,417.23801 223.99515,349.10094 251.24997,349.10094 251.24997,376.35577 264.8774,376.35577 264.8774,389.98319 278.50481,389.98319 278.50481,403.6106 360.26931,403.6106 360.26931,389.98319 373.89672,389.98319 373.89672,362.72835 387.52413,362.72835 387.52413,349.10094 373.89672,349.10094 373.89672,321.84611 346.64188,321.84611 346.64188,308.21869 305.75964,308.21869 305.75964,294.59128 264.8774,294.59128 264.8774,280.96386 251.24997,280.96386 251.24997,267.33645 237.62256,267.33645 237.62256,253.70903 223.99515,253.70903 223.99515,171.94453 237.62256,171.94453 237.62256,158.31712 251.24997,158.31712 251.24997,144.6897 278.50481,144.6897 278.50481,131.06229 373.89672,131.06229 373.89672,144.6897 401.15155,144.6897 401.15155,158.31712 414.77896,158.31712 414.77896,212.82678 373.89672,212.82678 373.89672,185.57195 360.26931,185.57195 360.26931,171.94453 333.01447,171.94453 333.01447,158.31712 292.13222,158.31712 292.13222,171.94453 278.50481,171.94453 278.50481,185.57195 264.8774,185.57195 264.8774,226.45419 278.50481,226.45419 278.50481,240.08161 305.75964,240.08161 305.75964,253.70903 346.64188,253.70903 346.64188,267.33645 387.52413,267.33645 387.52413,280.96386 401.15155,280.96386 401.15155,294.59128 414.77896,294.59128 414.77896,308.21869 428.40638,308.21869 428.40638,389.98319 414.77896,389.98319 414.77896,403.6106 401.15155,403.6106 401.15155,417.23801 373.89672,417.23801 373.89672,430.86544 251.24997,430.86544 251.24997,417.23801 z" fill="#b3b3b3" />
  <path d="M 238.00872,158.31062 237.63751,158.68183 237.63751,171.94423 224.74632,171.94423 224.0039,172.68665 224.0039,253.71215 237.63751,253.71215 237.63751,267.34576 251.23737,267.34576 251.23737,280.97937 264.87098,280.97937 264.87098,294.57924 305.77182,294.57924 305.77182,308.21285 346.6389,308.21285 346.6389,321.84646 373.90613,321.84646 373.90613,349.11368 387.53974,349.11368 387.53974,362.71355 373.90613,362.71355 373.90613,389.98077 360.27252,389.98077 360.27252,403.61438 278.50459,403.61438 278.50459,389.98077 264.87098,389.98077 264.87098,376.34716 251.23737,376.34716 251.23737,349.11368 224.0039,349.11368 224.0039,417.24799 251.23737,417.24799 251.23737,430.78036 340.96948,430.8816 367.96673,411.27485 402.55696,384.91878 401.88203,321.4415 327.70708,281.55306 279.68572,253.37468 256.19812,238.25622 251.27112,174.71145 251.23737,158.31062 238.00872,158.31062 z" fill="#666666" />
  <path d="M 238.00872,158.31062 237.63751,158.68183 237.63751,171.94423 224.74632,171.94423 224.0039,172.68665 224.0039,253.71215 237.63751,253.71215 237.63751,267.34576 251.23737,267.34576 251.23737,280.97937 278.50459,280.97937 278.50459,294.57924 319.37168,294.57924 319.37168,308.21285 360.27252,308.21285 360.27252,321.84646 373.90613,321.84646 373.90613,335.48007 387.53974,335.48007 387.53974,376.34716 373.90613,376.34716 373.90613,389.98077 360.27252,389.98077 360.27252,403.61438 264.87098,403.61438 264.87098,389.98077 251.23737,389.98077 251.23737,349.11368 224.0039,349.11368 224.0039,417.24799 278.50459,417.24799 278.50459,430.81411 340.96948,430.8816 367.96673,411.27485 402.55696,384.91878 401.88203,321.4415 327.70708,281.55306 279.68572,253.37468 256.19812,238.25622 251.27112,174.71145 251.23737,158.31062 238.00872,158.31062 z" fill="#808080" />
  <path d="M 360.26929,417.238 C 360.26929,412.69554 360.26929,408.15307 360.26929,403.6106 364.81177,403.6106 369.35424,403.6106 373.89672,403.6106 373.89672,399.06813 373.89672,394.52566 373.89672,389.98319 378.43919,389.98319 382.98167,389.98319 387.52414,389.98319 387.52414,367.27083 387.52414,344.55847 387.52414,321.84609 382.98167,321.84609 378.43919,321.84609 373.89672,321.84609 373.89672,317.30363 373.89672,312.76117 373.89672,308.21869 360.26931,308.21869 346.6419,308.21869 333.01449,308.21869 333.01449,303.67622 333.01449,299.13375 333.01449,294.59128 319.38708,294.59128 305.75965,294.59128 292.13223,294.59128 292.13223,290.04882 292.13223,285.50633 292.13223,280.96386 283.04728,280.96386 273.96234,280.96386 264.87739,280.96386 264.87739,276.42139 264.87739,271.87892 264.87739,267.33646 260.33492,267.33646 255.79243,267.33646 251.24996,267.33646 251.24996,262.79398 251.24996,258.25151 251.24996,253.70903 246.7075,253.70903 242.16504,253.70903 237.62258,253.70903 237.62258,244.62409 237.62258,235.53914 237.62258,226.4542 233.08011,226.4542 228.53764,226.4542 223.99517,226.4542 223.99517,217.36926 223.99517,208.28431 223.99517,199.19937 228.53764,199.19937 233.08011,199.19937 237.62258,199.19937 237.62258,190.11442 237.62258,181.02948 237.62258,171.94454 242.16504,171.94454 246.7075,171.94454 251.24996,171.94454 251.24996,167.40207 251.24996,162.8596 251.24996,158.31713 255.79243,158.31713 260.33492,158.31713 264.87739,158.31713 264.87739,162.8596 264.87739,167.40207 264.87739,171.94454 260.33492,171.94454 255.79243,171.94454 251.24996,171.94454 251.24996,190.11442 251.24996,208.28431 251.24996,226.4542 255.79243,226.4542 260.33492,226.4542 264.87739,226.4542 264.87739,230.99667 264.87739,235.53914 264.87739,240.08163 269.41986,240.08163 273.96234,240.08163 278.50481,240.08163 278.50481,244.62409 278.50481,249.16657 278.50481,253.70903 287.58975,253.70903 296.67471,253.70903 305.75965,253.70903 305.75965,258.25151 305.75965,262.79398 305.75965,267.33646 319.38706,267.33646 333.01447,267.33646 346.64187,267.33646 346.64187,271.87892 346.64187,276.42139 346.64187,280.96386 360.26929,280.96386 373.89672,280.96386 387.52414,280.96386 387.52414,285.50633 387.52414,290.04882 387.52414,294.59128 392.0666,294.59128 396.60909,294.59128 401.15156,294.59128 401.15156,299.13375 401.15156,303.67622 401.15156,308.21869 405.69403,308.21869 410.23649,308.21869 414.77895,308.21869 414.77895,335.47353 414.77895,362.72835 414.77895,389.98319 410.23649,389.98319 405.69403,389.98319 401.15156,389.98319 401.15156,394.52566 401.15156,399.06813 401.15156,403.6106 396.60909,403.6106 392.0666,403.6106 387.52414,403.6106 387.52414,408.15307 387.52414,412.69554 387.52414,417.238 378.43919,417.238 369.35424,417.238 360.26929,417.238 z M 251.25034,408.59547 C 251.22954,405.96516 252.15418,402.38931 248.28206,403.6106 244.7289,403.6106 241.17575,403.6106 237.62258,403.6106 237.62258,394.52566 237.62258,385.44071 237.62258,376.35575 242.16504,376.35575 246.7075,376.35575 251.24996,376.35575 251.24996,385.44071 251.24996,394.52566 251.24996,403.6106 260.33492,403.6106 269.41986,403.6106 278.50481,403.6106 278.50481,408.15307 278.50481,412.69554 278.50481,417.238 269.41986,417.238 260.33492,417.238 251.24996,417.238 251.25009,414.35716 251.25022,411.47631 251.25034,408.59547 z M 387.5241,171.94453 C 382.98163,171.94453 378.43915,171.94453 373.89668,171.94453 373.89668,167.40206 373.89668,162.85959 373.89668,158.31712 355.72679,158.31712 337.55691,158.31712 319.38703,158.31712 319.38703,153.77465 319.38703,149.23218 319.38703,144.6897 337.55691,144.6897 355.72679,144.6897 373.89668,144.6897 373.89668,149.23218 373.89672,153.77465 373.89672,158.31713 382.98167,158.31713 392.06657,158.31712 401.15151,158.31712 401.15151,176.487 401.15151,194.6569 401.15151,212.82678 396.60904,212.82678 392.06657,212.82678 387.5241,212.82678 387.5241,199.19937 387.5241,185.57194 387.5241,171.94453 z M 264.8774,158.31713 264.87739,144.6897 305.75965,144.6897 305.75965,158.31713 264.8774,158.31713 z" fill="#030303" />
  <path d="M 292.13222,430.86544 C 292.13222,426.32295 292.13222,421.78049 292.13222,417.23801 273.96234,417.23801 255.79246,417.23801 237.62256,417.23801 237.62256,412.69554 237.62256,408.15307 237.62256,403.6106 233.08009,403.6106 228.53762,403.6106 223.99515,403.6106 223.99515,385.44071 223.99515,367.27083 223.99515,349.10094 233.08009,349.10094 242.16503,349.10094 251.24997,349.10094 251.24997,362.72835 251.24997,376.35577 251.24997,389.98319 255.79246,389.98319 260.33493,389.98319 264.8774,389.98319 264.8774,394.52566 264.8774,399.06813 264.8774,403.6106 278.50481,403.6106 292.13222,403.6106 305.75964,403.6106 305.75964,408.15307 305.75964,412.69554 305.75964,417.23801 314.84459,417.23801 323.92953,417.23801 333.01447,417.23801 333.01447,412.69554 333.01447,408.15307 333.01447,403.6106 346.64188,403.6106 360.26931,403.6106 373.89672,403.6106 373.89672,399.06813 373.89672,394.52566 373.89672,389.98319 378.43919,389.98319 382.98166,389.98319 387.52413,389.98319 387.52413,371.81329 387.52413,353.64341 387.52413,335.47353 382.98166,335.47353 378.43919,335.47353 373.89672,335.47353 373.89672,330.93104 373.89672,326.38858 373.89672,321.84611 369.35424,321.84611 364.81178,321.84611 360.26931,321.84611 360.26931,317.30363 360.26931,312.76117 360.26931,308.21869 351.18437,308.21869 342.09941,308.21869 333.01447,308.21869 333.01447,303.67622 333.01447,299.13375 333.01447,294.59128 319.38706,294.59128 305.75964,294.59128 292.13222,294.59128 292.13222,290.04881 292.13222,285.50633 292.13222,280.96386 278.50481,280.96386 264.8774,280.96386 251.24997,280.96386 251.24997,276.42138 251.24997,271.87892 251.24997,267.33645 246.7075,267.33645 242.16503,267.33645 237.62256,267.33645 237.62256,258.25151 237.62256,249.16656 237.62256,240.08161 233.08009,240.08161 228.53762,240.08161 223.99515,240.08161 223.99515,221.91173 223.99515,203.74184 223.99515,185.57195 228.53762,185.57195 233.08009,185.57195 237.62256,185.57195 237.62256,176.48701 237.62256,167.40207 237.62256,158.31713 246.7075,158.31713 255.79246,158.31713 264.8774,158.31713 264.8774,153.77465 264.8774,149.23218 264.8774,144.6897 273.96234,144.6897 283.04728,144.6897 292.13222,144.6897 292.13222,140.14723 292.13222,135.60476 292.13222,131.06229 310.30212,131.06229 328.472,131.06229 346.64188,131.06229 346.64188,135.60476 346.64188,140.14723 346.64188,144.6897 364.81178,144.6897 382.98166,144.6897 401.15155,144.6897 401.15155,149.23218 401.15155,153.77465 401.15155,158.31713 405.69403,158.31713 410.23649,158.31713 414.77896,158.31713 414.77896,176.48701 414.77896,194.6569 414.77896,212.82679 405.69403,212.82679 396.60908,212.82679 387.52413,212.82679 387.52413,203.74184 387.52413,194.6569 387.52413,185.57195 382.98166,185.57195 378.43919,185.57195 373.89672,185.57195 373.89672,181.02948 373.89672,176.48701 373.89672,171.94454 369.35424,171.94454 364.81178,171.94454 360.26931,171.94454 360.26931,167.40207 360.26931,162.8596 360.26931,158.31713 333.01447,158.31713 305.75964,158.31713 278.50481,158.31713 278.50481,162.8596 278.50481,167.40207 278.50481,171.94454 273.96234,171.94454 269.41987,171.94454 264.8774,171.94454 264.8774,194.6569 264.8774,217.36926 264.8774,240.08161 273.96234,240.08161 283.04728,240.08161 292.13222,240.08161 292.13222,244.62409 292.13222,249.16656 292.13222,253.70903 301.21717,253.70903 310.30212,253.70903 319.38706,253.70903 319.38706,258.25151 319.38706,262.79397 319.38706,267.33645 333.01447,267.33645 346.64188,267.33645 360.26931,267.33645 360.26931,271.87892 360.26931,276.42138 360.26931,280.96386 369.35424,280.96386 378.43919,280.96386 387.52413,280.96386 387.52413,285.50633 387.52413,290.04881 387.52413,294.59128 396.60908,294.59128 405.69403,294.59128 414.77896,294.59128 414.77896,308.21869 414.77896,321.84611 414.77896,335.47353 419.32144,335.47353 423.8639,335.47353 428.40638,335.47353 428.40638,344.55847 428.40638,353.64341 428.40638,362.72835 423.8639,362.72835 419.32144,362.72835 414.77896,362.72835 414.77896,371.81329 414.77896,380.89824 414.77896,389.98319 410.23649,389.98319 405.69403,389.98319 401.15155,389.98319 401.15155,394.52566 401.15155,399.06813 401.15155,403.6106 396.60908,403.6106 392.0666,403.6106 387.52413,403.6106 387.52413,408.15307 387.52413,412.69554 387.52413,417.23801 378.43919,417.23801 369.35424,417.23801 360.26931,417.23801 360.26931,421.78049 360.26931,426.32295 360.26931,430.86544 337.55694,430.86544 314.84459,430.86544 292.13222,430.86544 z" fill="#666666" />
  <path d="M 292.13222,417.23801 237.62256,417.23801 237.62256,403.6106 223.99515,403.6106 223.99515,349.10094 237.62256,349.10094 237.62256,362.72835 251.24997,362.72835 251.24997,389.98319 264.8774,389.98319 264.8774,403.6106 305.75964,403.6106 305.75964,417.23801 333.01447,417.23801 333.01447,403.6106 373.89672,403.6106 373.89672,389.98319 387.52413,389.98319 387.52413,321.84611 360.26931,321.84611 360.26931,308.21869 333.01447,308.21869 333.01447,294.59128 292.13222,294.59128 292.13222,280.96386 264.8774,280.96386 264.8774,267.33645 237.62256,267.33645 237.62256,240.08161 223.99515,240.08161 223.99515,185.57195 237.62256,185.57195 237.62256,158.31713 264.8774,158.31713 264.8774,144.6897 387.52413,144.6897 387.52413,158.31713 401.15155,158.31713 401.15158,212.82679 387.52413,212.82679 387.52413,185.57195 373.89672,185.57195 373.89672,171.94454 360.26931,171.94454 360.26931,158.31713 278.50481,158.31713 278.50481,171.94454 264.8774,171.94454 264.8774,185.57195 251.24997,185.57195 251.24997,226.4542 264.8774,226.4542 264.87769,239.47214 278.1593,239.69243 278.50481,253.70903 319.38706,253.70903 319.38706,267.33645 360.26931,267.33645 360.26931,280.96386 387.52413,280.96386 387.52413,294.59128 401.15155,294.59128 401.15155,308.21869 414.77896,308.21869 414.77896,389.98319 401.15155,389.98319 401.15155,403.6106 387.52413,403.6106 387.52413,417.23801 346.64188,417.23801 346.64188,430.86544 292.13222,430.86544 292.13222,417.23801 z" fill="#252525" />
  <path d="M 80.937737,428.86115 C 80.937737,427.37427 80.923451,427.15299 80.825016,427.11522 80.763018,427.09143 79.210341,427.07196 77.374623,427.07196 75.538902,427.07196 73.986225,427.0525 73.924228,427.02871 73.822274,426.98959 73.811507,426.13546 73.811507,418.08665 L 73.811507,409.18784 73.971848,409.14891 C 74.060033,409.1275 75.671452,409.11887 77.552778,409.12974 L 80.973368,409.1495 81.010665,412.71261 C 81.031179,414.67232 81.05523,416.28316 81.064113,416.29225 81.072995,416.30134 81.841878,416.31737 82.772741,416.32788 L 84.465221,416.34699 84.48438,418.01597 C 84.496674,419.0869 84.531341,419.71845 84.581127,419.77844 84.640286,419.84972 85.058958,419.87646 86.343528,419.89102 L 88.028337,419.9101 88.04744,421.60155 C 88.066456,423.28535 88.06726,423.29317 88.225595,423.33136 88.313075,423.35246 93.09865,423.36094 98.860208,423.35021 L 109.33577,423.33069 109.35493,421.66171 C 109.36738,420.57671 109.4016,419.95957 109.45273,419.89797 109.51412,419.824 109.90266,419.80321 111.22379,419.80321 L 112.91621,419.80321 112.97881,416.29354 113.04141,412.78387 114.7127,412.76471 C 115.94067,412.75063 116.39877,412.72227 116.43972,412.65781 116.51245,412.54331 116.51245,409.39006 116.43972,409.27555 116.39877,409.21109 115.94067,409.18274 114.7127,409.16866 L 113.04141,409.1495 112.97014,405.65764 112.89888,402.16579 109.40703,402.09453 105.91518,402.02327 105.89607,400.33182 C 105.87703,398.64589 105.87645,398.64027 105.71792,398.60825 105.63044,398.59058 103.25483,398.55799 100.4388,398.53584 97.622758,398.51367 95.289808,398.47767 95.254462,398.45583 95.219118,398.43398 95.190198,397.66783 95.190198,396.75327 95.190198,395.30272 95.175808,395.08492 95.077476,395.04718 95.01548,395.02339 93.516299,394.99958 91.745964,394.99426 89.975629,394.98895 87.629268,394.9649 86.531828,394.94082 L 84.536484,394.89703 84.500853,393.18674 84.465221,391.47644 82.683664,391.44081 80.902107,391.40518 80.866475,389.65926 80.830843,387.91333 79.084918,387.8777 77.338991,387.84207 77.303359,386.09614 77.267729,384.35021 75.557434,384.31133 C 74.616771,384.28994 73.839121,384.26589 73.829323,384.25788 73.819524,384.24987 73.811507,379.43312 73.811507,373.55398 73.811507,367.67483 73.819524,362.85808 73.829323,362.85007 73.839121,362.84206 74.616771,362.81801 75.557434,362.79662 L 77.267729,362.75774 77.303359,361.01181 77.338991,359.26588 79.084918,359.23025 80.830843,359.19462 80.849931,357.50981 C 80.864566,356.21796 80.891007,355.80675 80.963293,355.74676 81.028187,355.6929 82.132715,355.66275 84.507321,355.65001 L 87.957075,355.63151 87.995958,353.92121 C 88.017347,352.98055 88.041398,352.2029 88.049406,352.1931 88.057414,352.1833 93.675874,352.17528 100.53487,352.17528 L 113.00577,352.17528 113.00577,353.88558 C 113.00577,354.82624 113.01379,355.60314 113.02359,355.61202 113.03339,355.62091 114.64481,355.64496 116.60452,355.66547 L 120.16764,355.70277 120.20327,357.44869 120.2389,359.19462 121.98482,359.23025 123.73075,359.26588 123.73075,366.42774 123.73075,373.58961 120.809,373.60634 C 119.20203,373.61554 116.79693,373.59951 115.46432,373.57071 L 113.04141,373.51834 112.97014,369.99086 112.89888,366.46337 111.18859,366.42774 109.47829,366.39211 109.44266,364.68182 109.40703,362.97152 105.87954,362.90026 102.35206,362.829 102.33296,361.13755 C 102.31394,359.45379 102.31313,359.44593 102.1548,359.40762 102.06732,359.38645 99.68685,359.37797 96.864862,359.38877 L 91.733976,359.40841 91.71489,361.09322 C 91.700333,362.37807 91.673602,362.79645 91.602282,362.85564 91.542096,362.90559 90.901205,362.94007 89.804181,362.95239 L 88.099598,362.97152 88.063968,364.68182 88.028337,366.39211 86.318041,366.42774 84.607746,366.46337 84.607746,371.73679 84.607746,377.0102 86.292555,377.02928 C 87.577127,377.04384 87.995797,377.07058 88.054955,377.14186 88.104742,377.20185 88.139408,377.8334 88.151703,378.90433 L 88.170862,380.57331 91.662714,380.64457 95.154567,380.71584 95.17367,382.40728 C 95.19271,384.09321 95.193292,384.09883 95.351826,384.13085 95.439305,384.14852 97.814909,384.18111 100.63095,384.20327 103.44699,384.22543 105.77993,384.26143 105.81528,384.28328 105.85063,384.30512 105.87954,385.07127 105.87954,385.98583 105.87954,387.43638 105.89393,387.65418 105.99227,387.69192 106.05426,387.71571 107.55344,387.73952 109.32378,387.74484 111.09411,387.75015 113.44047,387.7742 114.53791,387.79828 L 116.53326,387.84207 116.56889,389.55236 116.60452,391.26266 118.3091,391.28179 C 119.40613,391.2941 120.04702,391.32859 120.1072,391.37854 120.17852,391.43773 120.20525,391.85611 120.21981,393.14096 L 120.2389,394.82577 121.98482,394.8614 123.73075,394.89703 123.76638,396.67859 123.80201,398.46015 125.53012,398.47923 127.25824,398.49832 127.25824,409.18513 127.25824,419.87194 125.53012,419.89102 123.80201,419.9101 123.78288,421.61469 C 123.77041,422.72606 123.73637,423.35226 123.68508,423.41406 123.62363,423.4881 123.23385,423.50885 121.90484,423.50885 L 120.20327,423.50885 120.20327,425.21042 C 120.20327,426.54618 120.18273,426.92903 120.10772,426.99129 120.04117,427.04652 118.96524,427.0762 116.56242,427.08909 L 113.11267,427.10759 113.07378,428.81789 C 113.0524,429.75855 113.02834,430.5362 113.02034,430.546 113.01233,430.5558 105.79047,430.56382 96.971755,430.56382 L 80.937737,430.56382 80.937737,428.86115 z" fill="#c8c8c8" />
  <path d="M 88.035962,430.45109 C 88.01217,430.3891 87.992705,429.61946 87.992705,428.7408 L 87.992705,427.14323 85.623234,427.14501 C 84.320024,427.14599 81.129254,427.1076 78.532634,427.0597 L 73.811507,426.97261 73.811507,418.08022 73.811507,409.18784 73.991983,409.14254 C 74.091245,409.11763 75.68663,409.12504 77.537282,409.159 L 80.902107,409.22076 80.984,413.10455 C 81.02904,415.24064 81.069125,417.60566 81.073077,418.36015 L 81.080262,419.73195 82.719295,419.73195 C 84.263313,419.73195 84.36659,419.74021 84.500853,419.87447 84.635115,420.00873 84.643378,420.11201 84.643378,421.65603 L 84.643378,423.29506 85.302554,423.29695 C 85.665101,423.29799 88.543208,423.33068 91.698346,423.3696 94.853484,423.40851 100.13614,423.41874 103.43757,423.39233 L 109.44017,423.3443 109.45923,421.6272 109.47829,419.9101 111.22422,419.87447 112.97014,419.83884 113.00891,418.05728 C 113.03024,417.07743 113.05429,416.26771 113.06236,416.25791 113.07043,416.24811 113.82545,416.24009 114.74019,416.24009 L 116.40333,416.24009 116.45149,413.60339 C 116.47798,412.1532 116.47799,409.78073 116.45152,408.33124 L 116.40338,405.6958 114.72239,405.67672 113.04141,405.65764 113.00577,403.91172 112.97014,402.16579 111.2037,402.13016 C 109.73819,402.1006 109.42576,402.07632 109.36979,401.98763 109.33253,401.92861 109.30183,401.15471 109.30123,400.25952 L 109.30014,398.6383 108.64096,398.63969 C 107.31479,398.64246 98.997952,398.48457 98.842392,398.45366 L 98.682051,398.4218 98.682051,396.7485 98.682051,395.07519 97.987243,395.07657 C 96.630666,395.07926 88.310783,394.92188 88.153046,394.89054 L 87.992705,394.85869 87.992705,393.18781 87.992705,391.51693 86.264594,391.47951 C 85.314134,391.45893 83.734783,391.41775 82.754925,391.388 L 80.973368,391.33392 80.937737,389.62362 80.902107,387.91333 79.197524,387.89419 C 78.086151,387.88172 77.459954,387.84768 77.398151,387.79639 77.324014,387.73486 77.303359,387.33919 77.303359,385.98052 L 77.303359,384.24332 75.557434,384.24332 73.811507,384.24332 73.811507,373.55398 73.811507,362.86463 75.557434,362.86463 77.303359,362.86463 77.303359,361.13295 C 77.303359,359.88111 77.327055,359.37759 77.388875,359.31577 77.45069,359.25395 77.95394,359.23025 79.204796,359.23025 L 80.935204,359.23025 80.954286,357.50214 80.973368,355.77403 84.518668,355.71125 88.063968,355.64848 88.063968,353.91188 88.063968,352.17528 98.745689,352.17528 C 108.42028,352.17528 109.43149,352.18591 109.47067,352.28801 109.49446,352.35 109.51392,353.11963 109.51392,353.9983 L 109.51392,355.59587 110.92135,355.60306 C 111.69544,355.60701 114.07649,355.6471 116.21258,355.69214 L 120.09637,355.77403 120.11553,357.44301 C 120.12783,358.51395 120.16249,359.14549 120.21228,359.20548 120.27144,359.27676 120.69011,359.3035 121.97468,359.31806 L 123.65949,359.33714 123.65949,366.42774 123.65949,373.51834 120.21542,373.58065 C 117.73546,373.62551 116.72307,373.62095 116.59886,373.56436 L 116.42637,373.48577 116.42637,371.77394 116.42637,370.06212 114.7517,370.06212 C 113.83064,370.06212 113.07064,370.0541 113.06281,370.0443 113.04399,370.02074 112.94213,366.74902 112.89539,364.6665 L 112.85825,363.01215 111.2039,362.97502 C 109.12138,362.92827 105.84967,362.82642 105.8261,362.80759 105.8163,362.79977 105.80828,362.04497 105.80828,361.13026 L 105.80828,359.46715 103.23118,359.41996 C 101.81378,359.39401 98.623582,359.37278 96.141853,359.37278 L 91.629617,359.37278 91.610535,361.10089 91.591453,362.829 89.774264,362.88294 C 88.77481,362.9126 87.213104,362.95381 86.303808,362.97451 L 84.650545,363.01214 84.608119,364.73776 C 84.584785,365.68685 84.559121,368.85244 84.551088,371.77242 L 84.536484,377.08146 86.28241,377.11709 88.028337,377.15272 88.063968,378.89865 88.099598,380.64457 89.881157,380.68021 91.662714,380.71584 91.681793,382.39685 91.700871,384.07786 96.883941,384.16485 C 99.73463,384.21269 102.13916,384.26656 102.22735,384.28456 L 102.38769,384.3173 102.38769,385.97911 102.38769,387.64093 107.57202,387.72794 C 110.42341,387.77579 112.82851,387.82968 112.9167,387.84768 L 113.07704,387.88041 113.07704,389.55129 113.07704,391.22217 114.80515,391.25959 C 115.75561,391.28017 117.33496,391.32135 118.31482,391.3511 L 120.09637,391.40518 120.13201,393.15111 120.16764,394.89703 121.91356,394.93267 123.65949,394.9683 123.71357,396.74985 C 123.74332,397.72971 123.7845,399.30906 123.80508,400.25952 L 123.8425,401.98763 125.43764,401.98763 C 126.31498,401.98763 127.08352,402.0071 127.14551,402.03089 127.24726,402.06993 127.25824,402.76658 127.25824,409.18513 127.25824,415.60367 127.24726,416.30032 127.14551,416.33936 127.08352,416.36315 126.31498,416.38262 125.43764,416.38262 L 123.8425,416.38262 123.80508,418.11073 C 123.7845,419.06119 123.74332,420.64054 123.71357,421.6204 L 123.65949,423.40196 121.91356,423.43759 120.16764,423.47322 120.13201,425.21914 120.09637,426.96507 116.55107,427.02785 113.00577,427.09062 113.00577,428.82722 113.00577,430.56382 100.5425,430.56382 C 89.243354,430.56382 88.075176,430.55329 88.035962,430.45109 z" fill="#afafaf" />
  <path d="M 88.099598,428.83576 88.099598,427.10759 83.396287,427.05426 C 80.809466,427.02492 77.594787,426.99286 76.252558,426.983 L 73.812142,426.96507 73.811825,418.0751 73.811507,409.18513 77.289107,409.18513 C 79.898891,409.18513 80.788048,409.20647 80.852223,409.27064 80.91561,409.33403 80.937765,410.0301 80.937843,411.96079 80.9379,413.39334 80.959137,415.74393 80.985033,417.18432 L 81.032119,419.80321 82.716603,419.80321 C 83.93174,419.80321 84.424913,419.82704 84.4866,419.88872 84.548296,419.95042 84.572114,420.44427 84.572114,421.66182 L 84.572114,423.3494 88.117414,423.40905 C 92.181908,423.47743 109.14703,423.47317 109.36587,423.40371 109.50623,423.35916 109.51204,423.29798 109.53046,421.66945 L 109.54955,419.98136 111.21853,419.96221 C 112.28947,419.94991 112.92101,419.91524 112.981,419.86546 113.05228,419.8063 113.07903,419.38763 113.09358,418.10306 L 113.11267,416.41825 114.78733,416.38262 116.462,416.34699 116.51503,413.64812 C 116.54419,412.16373 116.54419,409.75863 116.51503,408.30344 L 116.462,405.65764 114.76952,405.63854 C 113.83865,405.62803 113.07046,405.61199 113.06242,405.6029 113.05438,405.59382 113.03033,404.80071 113.00897,403.84045 L 112.97014,402.09453 111.18859,402.0589 109.40703,402.02327 109.38797,400.3074 109.36892,398.59154 104.15019,398.49975 C 101.2799,398.44926 98.908038,398.38664 98.879401,398.3606 98.850762,398.33456 98.818694,397.57667 98.808138,396.67641 L 98.788944,395.03956 94.477575,394.95348 C 92.106322,394.90614 89.717253,394.85803 89.168534,394.84659 L 88.170862,394.82577 88.13523,393.15111 88.099598,391.47644 84.593234,391.40518 C 82.37601,391.36012 81.059953,391.30691 81.013656,391.26045 80.968863,391.21549 80.932999,390.53772 80.921274,389.51452 L 80.902107,387.84207 79.15618,387.80644 77.410252,387.7708 77.371484,385.98925 C 77.35016,385.00939 77.326109,384.19808 77.318036,384.18633 77.309964,384.17459 76.517663,384.17459 75.557368,384.18633 L 73.811376,384.20769 73.811376,373.55398 73.811376,362.90026 75.557368,362.92162 C 76.517663,362.93336 77.309964,362.93336 77.318036,362.92162 77.326109,362.90987 77.35016,362.09856 77.371484,361.1187 L 77.410252,359.33714 79.191811,359.29837 C 80.171667,359.27705 80.980805,359.253 80.989894,359.24493 80.998984,359.23686 81.015018,358.46864 81.025525,357.53777 L 81.04463,355.84529 84.429591,355.78855 C 86.291318,355.75735 87.88829,355.71625 87.978416,355.69723 L 88.142282,355.66265 88.120941,353.9189 88.099598,352.17515 98.753314,352.17517 109.40703,352.17519 109.40703,353.90335 109.40703,355.63151 111.438,355.67517 C 112.55504,355.69918 114.93217,355.72323 116.72051,355.72861 119.32957,355.73646 119.98757,355.75712 120.05067,355.83316 120.1018,355.89476 120.13602,356.5119 120.14848,357.5969 L 120.16764,359.26588 121.83662,359.28504 C 122.92162,359.2975 123.53876,359.33172 123.60036,359.38284 123.74312,359.50132 123.74071,373.35616 123.59792,373.47467 123.52779,373.53287 122.53014,373.55019 120.01699,373.53684 L 116.53326,373.51834 116.49763,371.73679 116.462,369.95523 114.78733,369.9196 113.11267,369.88397 113.05853,368.13804 C 113.02875,367.17778 112.98758,365.61555 112.96704,364.66642 L 112.92968,362.94072 111.20399,362.90337 C 110.25485,362.88283 108.69262,362.84165 107.73236,362.81188 L 105.98644,362.75774 105.95081,361.08307 105.91518,359.40841 103.84857,359.36487 C 100.75043,359.29959 91.746756,359.29558 91.646248,359.35942 91.58179,359.40037 91.553435,359.85847 91.539355,361.08644 L 91.520189,362.75774 89.774264,362.81188 C 88.814004,362.84165 87.254473,362.88281 86.308641,362.90334 L 84.588944,362.94067 84.540299,366.37669 C 84.513543,368.2665 84.501739,371.46421 84.514069,373.48271 L 84.536484,377.15272 86.24678,377.18835 87.957075,377.22398 87.992705,378.93428 88.028337,380.64457 89.809894,380.68334 C 90.789752,380.70467 91.59889,380.72872 91.607978,380.73679 91.617068,380.74486 91.633102,381.51308 91.64361,382.44395 L 91.662714,384.13643 95.902822,384.22232 C 98.23488,384.26956 100.60791,384.31766 101.17623,384.32921 L 102.20954,384.35021 102.24517,386.02488 102.2808,387.69954 106.55654,387.78531 C 108.90819,387.83249 111.29726,387.88059 111.86558,387.89221 L 112.89888,387.91333 112.93451,389.58799 112.97014,391.26266 114.7517,391.31588 C 115.73156,391.34516 117.31893,391.39326 118.27919,391.42278 L 120.02511,391.47644 120.06074,393.18674 120.09637,394.89703 121.80443,394.91618 C 122.85246,394.92792 123.54089,394.96362 123.58599,395.00856 123.63248,395.05489 123.68567,396.37013 123.73075,398.58816 L 123.80201,402.09453 125.53017,402.09453 127.25833,402.09453 127.25833,409.18513 127.25833,416.27573 125.53017,416.27573 123.80201,416.27573 123.74879,418.05728 C 123.71951,419.03714 123.67141,420.62451 123.64189,421.58477 L 123.58823,423.33069 121.90342,423.34978 C 120.61885,423.36433 120.20018,423.39108 120.14102,423.46236 120.09123,423.52235 120.05656,424.15389 120.04427,425.22483 L 120.02511,426.89381 116.64015,426.95055 C 114.77842,426.98175 113.18145,427.02285 113.09133,427.04187 L 112.92746,427.07645 112.9488,428.8202 112.97014,430.56395 100.53487,430.56393 88.099598,430.56391 88.099598,428.83576 z" fill="#8a8a8a" />
  <path d="M 91.612522,430.546 C 91.604514,430.5362 91.580462,429.75855 91.559074,428.81789 L 91.520189,427.10759 89.560477,427.06368 C 88.482633,427.03953 85.323933,427.01499 82.541139,427.00915 79.758346,427.0033 77.442037,426.97344 77.393786,426.9428 77.329328,426.90185 77.300975,426.44375 77.286893,425.21577 L 77.267729,423.54448 75.557434,423.50559 C 74.616771,423.48421 73.839121,423.46016 73.829323,423.45215 73.819524,423.44414 73.811507,420.22682 73.811507,416.30254 L 73.811507,409.16749 77.285543,409.21894 C 79.196265,409.24724 80.783473,409.29274 80.812672,409.32005 80.841873,409.34735 80.884002,411.66112 80.906292,414.46174 80.928582,417.26237 80.961277,419.62538 80.97895,419.71287 81.011001,419.87156 81.015279,419.87199 82.738151,419.89102 L 84.465221,419.9101 84.48436,421.61701 C 84.498449,422.8735 84.526656,423.33863 84.591254,423.37966 84.63952,423.41032 87.019974,423.43639 89.881157,423.43759 92.742338,423.43878 95.122782,423.46484 95.171034,423.4955 95.235493,423.53644 95.263846,423.99454 95.277928,425.22251 L 95.297092,426.89381 98.753314,426.89381 102.20954,426.89381 102.22864,425.20236 C 102.24768,423.51644 102.24826,423.51082 102.40679,423.47879 102.49427,423.46112 104.86914,423.42899 107.68427,423.40739 110.49941,423.38579 112.83236,423.34978 112.86861,423.32738 112.90592,423.30432 112.93451,422.56581 112.93451,421.62492 112.93451,420.32932 112.95539,419.94586 113.02927,419.88454 113.09088,419.83341 113.70801,419.79919 114.79302,419.78674 L 116.462,419.76758 116.50578,417.77223 C 116.57116,414.79271 116.57504,405.74202 116.51098,405.64118 116.47003,405.57672 116.01194,405.54836 114.78396,405.53428 L 113.11267,405.51512 113.07704,403.80482 113.04141,402.09453 111.25985,402.05576 C 110.27999,402.03444 109.47027,402.01038 109.46048,402.00231 109.45068,401.99424 109.44266,401.218 109.44266,400.27734 109.44266,399.33668 109.43464,398.55978 109.42484,398.55089 109.41505,398.54201 107.80363,398.51796 105.84391,398.49745 L 102.2808,398.46015 102.24517,396.74985 102.20954,395.03956 101.88885,395.01863 C 101.71248,395.00712 99.323413,394.97506 96.579814,394.94737 L 91.591453,394.89703 91.555821,393.18674 91.520189,391.47644 86.28241,391.36955 81.04463,391.26266 81.009,389.55236 80.973368,387.84207 79.265309,387.82292 C 78.216977,387.81118 77.528862,387.77549 77.483752,387.73052 77.437343,387.68427 77.383988,386.39114 77.338991,384.22218 L 77.267729,380.7871 75.557434,380.74821 C 74.616771,380.72683 73.839121,380.70277 73.829323,380.69477 73.819524,380.68676 73.811507,377.4734 73.811507,373.55398 73.811507,369.63455 73.819524,366.42119 73.829323,366.41318 73.839121,366.40517 74.616771,366.38112 75.557434,366.35974 L 77.267729,366.32085 77.338991,362.88814 C 77.378184,361.00015 77.436867,359.42882 77.469397,359.39629 77.501927,359.36376 79.073261,359.30508 80.96125,359.26588 L 84.393959,359.19462 84.429591,357.48432 84.465221,355.77403 88.028337,355.69697 C 89.988051,355.65458 91.59947,355.6145 91.609267,355.60789 91.619065,355.60128 91.627083,354.82624 91.627083,353.88558 L 91.627083,352.17528 98.753314,352.17528 105.87954,352.17528 105.87954,353.88078 C 105.87954,355.44309 105.89001,355.58946 106.00425,355.62422 106.07284,355.6451 109.23772,355.69729 113.03732,355.7402 116.83691,355.78311 119.97156,355.83422 120.00321,355.85377 120.03485,355.87333 120.06074,356.63711 120.06074,357.55107 120.06074,358.84667 120.08162,359.23013 120.1555,359.29144 120.21711,359.34257 120.83424,359.37679 121.91925,359.38925 L 123.58823,359.40841 123.6064,366.3882 C 123.61639,370.22708 123.60035,373.39097 123.57076,373.41906 123.54117,373.44715 121.96167,373.48098 120.06074,373.49424 L 116.60452,373.51834 116.53326,370.02649 116.462,366.53464 114.76952,366.51553 C 113.83865,366.50502 113.07043,366.48899 113.06236,366.4799 113.05429,366.47081 113.03024,365.66167 113.00891,364.68182 L 112.97014,362.90026 111.18859,362.86149 C 110.20873,362.84017 109.39959,362.81612 109.3905,362.80804 109.38141,362.79997 109.36538,362.03175 109.35487,361.10089 L 109.33577,359.40841 107.34042,359.36462 C 104.75172,359.30782 92.663967,359.30773 90.130574,359.3645 L 88.170862,359.40841 88.151755,361.10089 C 88.141248,362.03175 88.125214,362.79997 88.116125,362.80804 88.107035,362.81612 87.297897,362.84017 86.318041,362.86149 L 84.536484,362.90026 84.483768,365.39444 C 84.425282,368.16166 84.465764,376.11562 84.552137,378.82739 L 84.607746,380.57331 86.335857,380.62676 C 87.286318,380.65615 88.841618,380.70426 89.792078,380.73365 L 91.520189,380.7871 91.539355,382.45839 C 91.553435,383.68637 91.58179,384.14446 91.646248,384.18541 91.694498,384.21606 93.278637,384.24163 95.166555,384.24223 97.054472,384.24283 98.649857,384.26278 98.711855,384.28658 98.810186,384.32431 98.824576,384.54212 98.824576,385.99267 98.824576,386.90722 98.853495,387.67337 98.888841,387.69522 98.924185,387.71706 101.25714,387.75307 104.07317,387.77523 106.88921,387.79739 109.26482,387.82997 109.3523,387.84764 109.51083,387.87966 109.51141,387.88529 109.53045,389.57121 L 109.54955,391.26266 113.07704,391.33392 116.60452,391.40518 116.64015,393.11548 116.67578,394.82577 118.42171,394.87933 C 119.38197,394.90879 120.93727,394.9569 121.87793,394.98623 L 123.58823,395.03956 123.70228,400.31297 C 123.76501,403.21334 123.82113,405.5944 123.82699,405.6042 123.83285,405.61399 124.60728,405.62201 125.54794,405.62201 L 127.25824,405.62201 127.25824,409.18513 127.25824,412.74824 125.54794,412.74824 C 124.60728,412.74824 123.83232,412.75626 123.82581,412.76606 123.8193,412.77586 123.77921,414.38728 123.73673,416.34699 L 123.65949,419.9101 121.94919,419.94573 120.2389,419.98136 120.21974,421.65035 C 120.20745,422.72128 120.17278,423.35283 120.12299,423.41282 120.06383,423.4841 119.64516,423.51084 118.36059,423.5254 L 116.67578,423.54448 116.64015,425.25478 116.60452,426.96507 113.04141,427.03633 109.47829,427.10759 109.45921,428.83571 109.44013,430.56382 100.53361,430.56382 C 95.635018,430.56382 91.62053,430.5558 91.612522,430.546 z" fill="#666666" />
  <path d="M 91.610512,428.80008 91.591453,427.03633 85.605418,426.99328 C 82.3131,426.9696 79.114884,426.94555 78.49827,426.93984 L 77.377155,426.92944 77.358073,425.20133 77.338991,423.47322 75.575248,423.45416 73.811507,423.4351 73.81144,416.32793 73.811373,409.22076 75.53955,409.24019 C 76.490048,409.25088 77.307219,409.2737 77.355486,409.2909 77.420821,409.31418 77.448133,409.74621 77.46238,410.98176 L 77.481516,412.64135 79.15618,412.67698 80.830843,412.71261 80.893003,416.27573 C 80.936681,418.77947 80.979055,419.85441 81.035526,419.8912 81.079729,419.91999 81.861475,419.94404 82.772741,419.94464 L 84.429591,419.94573 84.430681,421.60258 C 84.431282,422.51385 84.45731,423.29965 84.488521,423.34881 84.532752,423.41848 85.719104,423.44857 89.866494,423.48523 L 95.187718,423.53227 95.206774,425.24867 95.22583,426.96507 98.753314,426.96507 102.2808,426.96507 102.29988,425.23886 102.31895,423.51265 105.89862,423.4758 C 107.86744,423.45552 110.25594,423.42149 111.2064,423.40017 L 112.93451,423.36139 112.93451,421.70024 C 112.93451,420.18144 112.94568,420.02898 113.06483,419.92115 113.17816,419.81858 113.40931,419.80321 114.83795,419.80321 L 116.48074,419.80321 116.52972,416.43607 C 116.57654,413.21628 116.54518,407.50003 116.4609,403.8939 L 116.42134,402.20142 114.80264,402.19915 C 113.49229,402.19732 113.15758,402.17696 113.0456,402.09226 112.93297,402.00707 112.5921,401.98763 111.2106,401.98763 L 109.51392,401.98763 109.51392,400.35443 C 109.51392,399.45617 109.49446,398.6705 109.47067,398.6085 109.43205,398.50786 109.05733,398.49578 105.97413,398.49578 103.72997,398.49578 102.47258,398.46995 102.38301,398.42201 102.25278,398.35232 102.24517,398.25649 102.24517,396.68763 L 102.24517,395.02702 99.73317,394.97995 C 98.351572,394.95407 96.008498,394.93283 94.526337,394.93278 92.805208,394.93271 91.781695,394.90601 91.693661,394.8589 91.563425,394.7892 91.555821,394.69334 91.555821,393.12141 L 91.555821,391.4577 88.153046,391.41234 C 86.28152,391.3874 84.6701,391.34276 84.572114,391.31315 L 84.393959,391.25931 84.37483,389.60413 84.355701,387.94896 82.735796,387.94669 C 81.424395,387.94486 81.089548,387.9245 80.977564,387.8398 80.864949,387.75462 80.524482,387.73517 79.146043,387.73517 L 77.452851,387.73517 77.412482,385.9358 C 77.390279,384.94614 77.355553,383.35878 77.335311,382.40832 L 77.298508,380.68021 75.555008,380.68021 73.811507,380.68021 73.811507,373.55398 73.811507,366.42774 75.55395,366.42774 77.296392,366.42774 77.336761,364.62837 C 77.358965,363.63872 77.393685,362.05291 77.413919,361.10436 L 77.450705,359.37971 79.247668,359.3394 C 80.235997,359.31723 81.806246,359.28249 82.737111,359.2622 L 84.429591,359.22532 84.429591,357.55563 C 84.429591,356.03735 84.4409,355.88013 84.5543,355.82189 84.94233,355.62262 102.36876,355.55809 110.65412,355.72524 L 116.60452,355.84529 116.62365,357.50214 116.64278,359.15899 118.30371,359.15899 C 119.94772,359.15899 119.96622,359.16067 120.11958,359.32392 L 120.27453,359.48886 120.27453,366.45192 120.27453,373.41498 120.09173,373.48448 C 119.89511,373.55923 116.86873,373.58252 116.68161,373.51072 116.58669,373.47429 116.56889,373.31864 116.56889,372.5247 116.56889,372.00618 116.54766,370.42224 116.5217,369.00484 L 116.47452,366.42774 114.77578,366.42774 113.07704,366.42774 113.07704,364.72254 C 113.07704,363.26737 113.06062,363.00091 112.96505,362.90535 112.86949,362.80979 112.60303,362.79337 111.14786,362.79337 L 109.44266,362.79337 109.44266,361.08307 109.44266,359.37278 108.60533,359.36962 C 108.14479,359.36789 105.37893,359.33655 102.45895,359.29998 98.730589,359.25328 95.79732,359.25821 92.60694,359.31653 L 88.063968,359.39957 88.063968,361.09647 88.063968,362.79337 86.371489,362.79446 C 85.431459,362.79506 84.631485,362.82555 84.572114,362.86302 84.483432,362.919 84.459151,363.23142 84.429591,364.69693 L 84.393959,366.46337 82.737111,366.4825 81.080262,366.50163 81.080262,371.7381 81.080262,376.97456 82.715255,376.97456 C 84.324025,376.97456 84.352026,376.97711 84.46118,377.13295 84.553872,377.26528 84.572114,377.56412 84.572114,378.95013 L 84.572114,380.60894 86.230923,380.60894 C 87.616938,380.60894 87.915776,380.62719 88.048112,380.71988 88.20394,380.82902 88.206492,380.85712 88.206492,382.46329 L 88.206492,384.09578 89.863341,384.13079 C 90.774607,384.15005 93.147642,384.20361 95.136751,384.24981 L 98.753314,384.33381 98.753314,386.03449 98.753314,387.73517 99.376859,387.73369 C 99.719808,387.73287 102.12491,387.77099 104.72153,387.81839 L 109.44266,387.90457 109.44266,389.59298 109.44266,391.28138 112.9167,391.32818 C 114.82742,391.35391 116.43884,391.40127 116.49763,391.43342 116.58711,391.48236 116.60763,391.76624 116.62363,393.17664 L 116.64273,394.8614 118.30025,394.8614 C 119.6851,394.8614 119.98382,394.87965 120.11615,394.97234 120.27199,395.08149 120.27453,395.10949 120.27453,396.71826 L 120.27453,398.35326 121.91106,398.35326 C 123.39785,398.35326 123.55342,398.36467 123.61136,398.47797 123.64644,398.54656 123.71666,400.98373 123.76741,403.8939 123.84292,408.22425 123.84292,410.146 123.76742,414.47635 123.71148,417.68498 123.64761,419.80264 123.60516,419.85666 123.55271,419.92338 123.11711,419.94573 121.86921,419.94573 L 120.20327,419.94573 120.20327,421.60935 C 120.20327,423.13054 120.19211,423.28307 120.07295,423.39091 119.95958,423.49351 119.72788,423.50885 118.29139,423.50885 L 116.64015,423.50885 116.64015,425.18504 C 116.64015,426.85476 116.63953,426.8615 116.47981,426.93227 116.38178,426.9757 114.31167,427.02357 111.15296,427.05545 L 105.98644,427.10759 105.94755,428.81789 C 105.92617,429.75855 105.90211,430.5362 105.89411,430.546 105.8861,430.5558 102.6733,430.56382 98.754558,430.56382 L 91.629573,430.56382 91.610512,428.80008 z" fill="#515151" />
  <path d="M 91.662714,428.76449 91.662714,426.96507 85.534156,426.92184 C 82.163449,426.89806 78.964662,426.874 78.42574,426.86839 L 77.445884,426.85818 77.445884,425.19224 C 77.445884,423.84337 77.426706,423.51038 77.345118,423.44267 77.272512,423.38241 76.764677,423.36504 75.527863,423.3805 L 73.811373,423.40196 73.81144,416.29354 C 73.811484,411.60215 73.835737,409.18513 73.882768,409.18513 73.921964,409.18513 73.954032,409.21719 73.954032,409.25639 73.954032,409.30192 74.571639,409.32765 75.664327,409.32765 L 77.374623,409.32765 77.374623,411.03795 77.374623,412.74824 79.076465,412.74824 80.778308,412.74824 80.82756,416.22228 C 80.854649,418.133 80.892501,419.75187 80.911677,419.81977 80.943321,419.93181 81.10587,419.94498 82.670251,419.96229 L 84.393959,419.98136 84.413026,421.70233 C 84.429403,423.18052 84.447699,423.42929 84.542723,423.46575 84.603569,423.4891 87.007551,423.52965 89.884904,423.55585 L 95.116455,423.60351 95.135511,425.31992 95.154567,427.03633 98.753314,427.03633 102.35206,427.03633 102.37114,425.31016 102.39022,423.58399 105.89862,423.54697 C 107.82825,423.5266 110.21675,423.49259 111.2064,423.47138 L 113.00577,423.43282 113.00577,421.73916 C 113.00577,420.51689 113.02958,420.0217 113.09129,419.95999 113.15298,419.8983 113.64615,419.87447 114.86128,419.87447 L 116.54576,419.87447 116.59296,417.19047 C 116.64813,414.05261 116.63952,407.03777 116.57692,404.1255 L 116.53326,402.09453 114.78733,402.04188 C 113.82707,402.01292 112.24772,401.97124 111.27766,401.94926 L 109.51392,401.90929 109.51392,400.20254 C 109.51392,399.26382 109.5059,398.48851 109.49611,398.47963 109.48631,398.47075 107.87489,398.4467 105.91518,398.42618 L 102.35206,398.38889 102.33298,396.66078 102.31389,394.93267 100.97899,394.92246 C 100.2448,394.91685 97.848282,394.8928 95.653403,394.86902 L 91.662714,394.82577 91.643651,393.10629 91.624588,391.3868 88.063968,391.33392 84.503347,391.28103 84.484284,389.56155 84.465221,387.84207 82.719295,387.78949 C 81.759035,387.76057 80.197328,387.71887 79.248835,387.69683 L 77.524299,387.65676 77.484174,385.93222 C 77.462106,384.98373 77.420412,383.40599 77.39152,382.42613 L 77.338991,380.64457 75.575203,380.64457 73.811414,380.64457 73.811414,373.55398 73.811414,366.46337 75.575203,366.46337 77.338991,366.46337 77.39152,364.68182 C 77.420412,363.70196 77.462108,362.12373 77.484181,361.17464 L 77.524313,359.44903 79.177578,359.412 C 80.086874,359.39163 81.656029,359.3569 82.664589,359.33482 L 84.498334,359.29467 84.517409,357.56998 84.536484,355.84529 87.066295,355.78934 C 89.738005,355.73025 111.22399,355.77992 114.59009,355.85297 L 116.56635,355.89586 116.58543,357.58087 116.60452,359.26588 118.35045,359.30151 120.09637,359.33714 120.09637,366.39211 120.09637,373.44708 118.37725,373.46614 116.65812,373.4852 116.59569,369.93866 116.53326,366.39211 114.82296,366.35648 113.11267,366.32085 113.07704,364.57492 113.04141,362.829 111.29548,362.79337 109.54955,362.75774 109.51392,361.04744 109.47829,359.33714 107.23353,359.28823 C 104.03308,359.2185 92.854418,359.21342 90.237469,359.28051 L 88.028337,359.33714 87.992705,361.04744 87.957075,362.75774 86.211148,362.79337 84.465221,362.829 84.426452,364.61055 C 84.405129,365.59041 84.381078,366.39955 84.373005,366.40864 84.364932,366.41773 83.596712,366.43376 82.665848,366.44427 L 80.973368,366.46337 80.973368,371.77242 80.973368,377.08146 82.680276,377.1006 C 83.936761,377.11469 84.401893,377.14289 84.442927,377.20749 84.473586,377.25576 84.499161,378.05686 84.499762,378.98773 L 84.500853,380.68021 86.193332,380.6813 C 87.124196,380.6819 87.925301,380.70747 87.973565,380.73813 88.038163,380.77916 88.06637,381.2443 88.080459,382.50078 L 88.099598,384.20769 92.019026,384.28947 C 94.174711,384.33445 96.555183,384.37454 97.308962,384.37855 L 98.679471,384.38584 98.698578,386.07832 98.717683,387.7708 102.67274,387.8526 C 104.84802,387.89758 107.24453,387.93767 107.99831,387.94167 L 109.36882,387.94896 109.38792,389.64144 109.40703,391.33392 112.97014,391.40518 116.53326,391.47644 116.55234,393.20455 116.57142,394.93267 118.26264,394.93376 C 119.1928,394.93436 119.99334,394.95993 120.0416,394.99059 120.1062,395.03163 120.13441,395.49676 120.1485,396.75324 L 120.16764,398.46015 121.8842,398.47921 123.60077,398.49826 123.64794,401.18102 C 123.70412,404.37533 123.69394,415.02137 123.63201,417.8435 L 123.58823,419.83884 121.86012,419.85792 120.13201,419.87701 120.13201,421.57178 C 120.13201,422.79492 120.10821,423.29035 120.04649,423.35207 119.98477,423.41379 119.48906,423.43759 118.26493,423.43759 L 116.56889,423.43759 116.56889,425.14368 C 116.56889,426.09061 116.54006,426.86758 116.5041,426.88981 116.46846,426.91183 114.06336,426.95107 111.15943,426.97699 L 105.87954,427.02414 105.87954,428.79397 105.87954,430.56382 98.77113,430.56386 91.662714,430.56391 91.662714,428.76449 z" fill="#252525" />
  <path d="M 109.49611,426.89139 C 109.44922,426.84142 109.41453,423.60329 109.46048,423.56543 109.47027,423.55736 110.27999,423.53331 111.25985,423.51198 L 113.04141,423.47322 113.07704,421.72729 113.11267,419.98136 114.85859,419.94573 116.60452,419.9101 116.64818,417.87913 C 116.70442,415.26291 116.70435,406.7615 116.64806,404.08987 L 116.60452,402.02327 114.82296,401.98763 113.04141,401.952 113.00577,400.24171 112.97014,398.53141 111.18859,398.47616 C 110.20873,398.44577 107.82768,398.40509 105.89736,398.38577 L 102.38769,398.35063 102.38769,396.64586 C 102.38769,395.6997 102.35886,394.92326 102.3229,394.90103 102.28726,394.87901 99.88272,394.83978 96.979466,394.81386 L 91.700826,394.76673 91.68177,393.05032 91.662714,391.33392 88.118661,391.27153 84.574608,391.20914 84.555545,389.48997 84.536484,387.7708 82.754925,387.73517 80.973368,387.69954 80.937737,385.98925 80.902107,384.27895 79.209627,384.25985 C 78.278762,384.24934 77.511865,384.2333 77.505409,384.22421 77.498952,384.21513 77.458867,382.62032 77.416331,380.68021 L 77.338991,377.15272 75.575248,377.13366 73.811507,377.1146 73.811507,373.55398 73.811507,369.99335 75.575248,369.97429 77.338991,369.95523 77.416331,366.42774 C 77.458867,364.48763 77.498952,362.89224 77.505409,362.88244 77.511865,362.87265 78.286779,362.86463 79.227441,362.86463 L 80.937737,362.86463 80.937737,361.15569 80.937737,359.44675 81.098078,359.40746 C 81.186265,359.38585 81.979949,359.37722 82.861819,359.38829 L 84.465221,359.40841 84.484397,361.0385 C 84.497838,362.18103 84.479242,362.69791 84.422225,362.76661 84.357366,362.84476 83.997689,362.86463 82.647767,362.86463 L 80.954659,362.86463 80.905959,366.3743 C 80.879175,368.30461 80.867351,371.51944 80.879684,373.51834 L 80.902107,377.15272 82.648032,377.18835 84.393959,377.22398 84.429591,378.96991 84.465221,380.71584 86.211148,380.75147 87.957075,380.7871 87.992705,382.53302 88.028337,384.27895 91.609267,384.34117 95.190198,384.4034 95.190198,386.07152 C 95.190198,387.3435 95.211353,387.74633 95.279276,387.76781 95.32827,387.78329 97.733371,387.83584 100.62395,387.88456 L 105.87954,387.97316 105.87954,389.63796 C 105.87954,390.90732 105.9007,391.30943 105.96862,391.33083 106.01762,391.34627 108.40613,391.39866 111.27642,391.44726 L 116.49515,391.53562 116.5142,393.25196 116.53326,394.9683 118.27919,395.00393 120.02511,395.03956 120.06074,396.78549 120.09637,398.53141 121.81295,398.55047 123.52952,398.56952 123.57659,401.18717 C 123.60247,402.62688 123.62365,406.22596 123.62365,409.18513 123.62365,412.14429 123.60247,415.74337 123.57659,417.18308 L 123.52952,419.80073 121.81295,419.81978 120.09637,419.83884 120.06074,421.58477 120.02511,423.33069 118.27919,423.36632 116.53326,423.40196 116.51418,425.13007 116.49509,426.85818 115.5816,426.85818 C 115.07918,426.85818 113.51644,426.87847 112.10883,426.90327 110.70123,426.92808 109.5255,426.92273 109.49611,426.89139 z M 80.937737,425.14913 80.937737,423.44007 79.173995,423.42102 77.410252,423.40196 77.410252,419.87447 77.410252,416.34699 79.100342,416.32789 80.790431,416.30879 80.828527,418.10944 C 80.849479,419.09981 80.883692,420.70272 80.904556,421.67147 L 80.942488,423.43284 82.739485,423.47092 C 83.727834,423.49186 85.330168,423.52607 86.300225,423.54694 L 88.063968,423.58488 88.063968,425.22153 88.063968,426.85818 84.500853,426.85818 80.937737,426.85818 80.937737,425.14913 z M 116.67528,370.22246 C 116.64457,368.46852 116.60006,366.1035 116.57635,364.96687 L 116.53326,362.90026 114.86428,362.8811 C 113.77928,362.86865 113.16214,362.83442 113.10054,362.7833 113.02658,362.72192 113.00577,362.33408 113.00577,361.01647 L 113.00577,359.32829 108.35591,359.24199 C 105.79848,359.19453 102.59109,359.15643 101.22837,359.15734 L 98.750688,359.15899 98.769815,357.50214 98.788944,355.84529 102.31643,355.82286 C 104.25654,355.81052 107.45533,355.82235 109.42484,355.84914 L 113.00577,355.89786 113.00577,357.59054 113.00577,359.28321 116.51544,359.34581 120.02511,359.40841 120.04328,366.40993 120.06144,373.41145 118.39627,373.41145 116.73111,373.41145 116.67528,370.22246 z M 84.619623,359.254 C 84.593494,359.22788 84.572114,358.46205 84.572114,357.55218 L 84.572114,355.89786 88.153046,355.84882 C 90.122559,355.82184 92.503609,355.81001 93.444271,355.82253 L 95.154567,355.84529 95.173663,357.48807 95.192755,359.13085 90.47035,359.21796 C 85.098641,359.31706 84.685224,359.31961 84.619623,359.254 z" fill="#030303" />
  <path d="M 80.413995,427.25922 73.20022,427.25922 73.20022,409.22478 80.413995,409.22478 80.413995,416.43856 84.020882,416.43856 84.020882,420.04544 87.62777,420.04544 87.62777,423.65233 109.2691,423.65233 109.2691,420.04544 112.87598,420.04544 112.87598,412.83167 116.48287,412.83167 116.48287,409.22478 112.87598,409.22478 112.87598,402.01101 105.66221,402.01101 105.66221,398.40412 94.841545,398.40412 94.841545,394.79723 84.020882,394.79723 84.020882,391.19034 80.413995,391.19034 80.413995,387.58346 76.807108,387.58346 76.807108,383.97657 73.20022,383.97657 73.20022,362.33524 76.807108,362.33524 76.807108,358.72835 80.413995,358.72835 80.413995,355.12147 87.62777,355.12147 87.62777,351.51458 112.87598,351.51458 112.87598,355.12147 120.08976,355.12147 120.08976,358.72835 123.69665,358.72835 123.69665,373.1559 112.87598,373.1559 112.87598,365.94213 109.2691,365.94213 109.2691,362.33524 102.05532,362.33524 102.05532,358.72835 91.234657,358.72835 91.234657,362.33524 87.62777,362.33524 87.62777,365.94213 84.020882,365.94213 84.020882,376.76279 87.62777,376.76279 87.62777,380.36968 94.841545,380.36968 94.841545,383.97657 105.66221,383.97657 105.66221,387.58346 116.48287,387.58346 116.48287,391.19034 120.08976,391.19034 120.08976,394.79723 123.69665,394.79723 123.69665,398.40412 127.30353,398.40412 127.30353,420.04544 123.69665,420.04544 123.69665,423.65233 120.08976,423.65233 120.08976,427.25922 112.87598,427.25922 112.87598,430.8661 80.413995,430.8661 80.413995,427.25922 z" fill="#c8c8c8" />
  <path d="M 87.62777,427.25922 73.20022,427.25922 73.20022,409.22478 80.413995,409.22478 80.413995,420.04544 84.020882,420.04544 84.020882,423.65233 109.2691,423.65233 109.2691,420.04544 112.87598,420.04544 112.87598,416.43856 116.48287,416.43856 116.48287,405.61789 112.87598,405.61789 112.87598,402.01101 109.2691,402.01101 109.2691,398.40412 98.448432,398.40412 98.448432,394.79723 87.62777,394.79723 87.62777,391.19034 80.413995,391.19034 80.413995,387.58346 76.807108,387.58346 76.807108,383.97657 73.20022,383.97657 73.20022,362.33524 76.807108,362.33524 76.807108,358.72836 80.413995,358.72836 80.413995,355.12147 87.62777,355.12147 87.62777,351.51458 109.2691,351.51458 109.35149,355.04613 120.08976,355.12147 120.08976,358.72836 123.69665,358.72836 123.69665,373.15591 116.48287,373.15591 116.48287,369.54902 112.87598,369.54902 112.87598,362.33524 105.66221,362.33524 105.66221,358.72836 91.234657,358.72836 91.234657,362.33524 84.020882,362.33524 84.020882,376.76279 87.62777,376.76279 87.62777,380.36968 91.234657,380.36968 91.234657,383.97657 102.05532,383.97657 102.05532,387.58346 112.87598,387.58346 112.87598,391.19034 120.08976,391.19034 120.08976,394.79723 123.69665,394.79723 123.69665,402.01101 127.30353,402.01101 127.30353,416.43856 123.69665,416.43856 123.69665,423.65233 120.08976,423.65233 120.08976,427.25922 112.87598,427.25922 112.87598,430.8661 87.62777,430.8661 87.62777,427.25922 z" fill="#8a8a8a" />
  <path d="M 91.234657,430.8661 C 91.234657,429.66381 91.234657,428.46151 91.234657,427.25922 86.425474,427.25922 81.616291,427.25922 76.807108,427.25922 76.807108,426.05692 76.807108,424.85463 76.807108,423.65233 75.604812,423.65233 74.402516,423.65233 73.20022,423.65233 73.20022,418.84315 73.20022,414.03396 73.20022,409.22478 75.604812,409.22478 78.009403,409.22478 80.413995,409.22478 80.413995,412.83167 80.413995,416.43856 80.413995,420.04544 81.616291,420.04544 82.818587,420.04544 84.020882,420.04544 84.020882,421.24774 84.020882,422.45003 84.020882,423.65233 87.62777,423.65233 91.234657,423.65233 94.841545,423.65233 94.841545,424.85463 94.841545,426.05692 94.841545,427.25922 97.246137,427.25922 99.650728,427.25922 102.05532,427.25922 102.05532,426.05692 102.05532,424.85463 102.05532,423.65233 105.66221,423.65233 109.2691,423.65233 112.87598,423.65233 112.87598,422.45003 112.87598,421.24774 112.87598,420.04544 114.07828,420.04544 115.28057,420.04544 116.48287,420.04544 116.48287,415.23626 116.48287,410.42708 116.48287,405.61789 115.28057,405.61789 114.07828,405.61789 112.87598,405.61789 112.87598,404.4156 112.87598,403.2133 112.87598,402.01101 111.67369,402.01101 110.47139,402.01101 109.2691,402.01101 109.2691,400.80871 109.2691,399.60641 109.2691,398.40412 106.8645,398.40412 104.45991,398.40412 102.05532,398.40412 102.05532,397.20182 102.05532,395.99953 102.05532,394.79723 98.448432,394.79723 94.841545,394.79723 91.234657,394.79723 91.234657,393.59493 91.234657,392.39264 91.234657,391.19034 87.62777,391.19034 84.020882,391.19034 80.413995,391.19034 80.413995,389.98805 80.413995,388.78575 80.413995,387.58346 79.211699,387.58346 78.009403,387.58346 76.807108,387.58346 76.807108,385.17886 76.807108,382.77427 76.807108,380.36968 75.604812,380.36968 74.402516,380.36968 73.20022,380.36968 73.20022,375.5605 73.20022,370.75131 73.20022,365.94213 74.402516,365.94213 75.604812,365.94213 76.807108,365.94213 76.807108,363.53754 76.807108,361.13295 76.807108,358.72836 79.211699,358.72836 81.616291,358.72836 84.020882,358.72836 84.020882,357.52606 84.020882,356.32376 84.020882,355.12147 86.425474,355.12147 88.830066,355.12147 91.234657,355.12147 91.234657,353.91917 91.234657,352.71688 91.234657,351.51458 96.043841,351.51458 100.85302,351.51458 105.66221,351.51458 105.66221,352.71688 105.66221,353.91917 105.66221,355.12147 110.47139,355.12147 115.28057,355.12147 120.08976,355.12147 120.08976,356.32376 120.08976,357.52606 120.08976,358.72836 121.29205,358.72836 122.49435,358.72836 123.69665,358.72836 123.69665,363.53754 123.69665,368.34672 123.69665,373.15591 121.29205,373.15591 118.88746,373.15591 116.48287,373.15591 116.48287,370.75131 116.48287,368.34672 116.48287,365.94213 115.28057,365.94213 114.07828,365.94213 112.87598,365.94213 112.87598,364.73983 112.87598,363.53754 112.87598,362.33524 111.67369,362.33524 110.47139,362.33524 109.2691,362.33524 109.2691,361.13295 109.2691,359.93065 109.2691,358.72836 102.05532,358.72836 94.841545,358.72836 87.62777,358.72836 87.62777,359.93065 87.62777,361.13295 87.62777,362.33524 86.425474,362.33524 85.223178,362.33524 84.020882,362.33524 84.020882,368.34672 84.020882,374.3582 84.020882,380.36968 86.425474,380.36968 88.830066,380.36968 91.234657,380.36968 91.234657,381.57198 91.234657,382.77427 91.234657,383.97657 93.639249,383.97657 96.043841,383.97657 98.448432,383.97657 98.448432,385.17886 98.448432,386.38116 98.448432,387.58346 102.05532,387.58346 105.66221,387.58346 109.2691,387.58346 109.2691,388.78575 109.2691,389.98805 109.2691,391.19034 111.67369,391.19034 114.07828,391.19034 116.48287,391.19034 116.48287,392.39264 116.48287,393.59493 116.48287,394.79723 118.88746,394.79723 121.29205,394.79723 123.69665,394.79723 123.69665,398.40412 123.69665,402.01101 123.69665,405.61789 124.89894,405.61789 126.10124,405.61789 127.30353,405.61789 127.30353,408.02248 127.30353,410.42708 127.30353,412.83167 126.10124,412.83167 124.89894,412.83167 123.69665,412.83167 123.69665,415.23626 123.69665,417.64085 123.69665,420.04544 122.49435,420.04544 121.29205,420.04544 120.08976,420.04544 120.08976,421.24774 120.08976,422.45003 120.08976,423.65233 118.88746,423.65233 117.68517,423.65233 116.48287,423.65233 116.48287,424.85463 116.48287,426.05692 116.48287,427.25922 114.07828,427.25922 111.67369,427.25922 109.2691,427.25922 109.2691,428.46151 109.2691,429.66381 109.2691,430.8661 103.25762,430.8661 97.246137,430.8661 91.234657,430.8661 z" fill="#666666" />
  <path d="M 91.234657,427.25922 76.807108,427.25922 76.807108,423.65233 73.20022,423.65233 73.20022,409.22478 76.807108,409.22478 76.807108,412.83167 80.413995,412.83167 80.413995,420.04544 84.020882,420.04544 84.020882,423.65233 94.841545,423.65233 94.841545,427.25922 102.05532,427.25922 102.05532,423.65233 112.87598,423.65233 112.87598,420.04544 116.48287,420.04544 116.48287,402.01101 109.2691,402.01101 109.2691,398.40412 102.05532,398.40412 102.05532,394.79723 91.234657,394.79723 91.234657,391.19034 84.020882,391.19034 84.020882,387.58346 76.807108,387.58346 76.807108,380.36968 73.20022,380.36968 73.20022,365.94213 76.807108,365.94213 76.807108,358.72836 84.020882,358.72836 84.020882,355.12147 116.48287,355.12147 116.48287,358.72836 120.08976,358.72836 120.08977,373.15591 116.48287,373.15591 116.48287,365.94213 112.87598,365.94213 112.87598,362.33524 109.2691,362.33524 109.2691,358.72836 87.62777,358.72836 87.62777,362.33524 84.020882,362.33524 84.020882,365.94213 80.413995,365.94213 80.413995,376.76279 84.020882,376.76279 84.02096,380.20836 87.53632,380.26667 87.62777,383.97657 98.448432,383.97657 98.448432,387.58346 109.2691,387.58346 109.2691,391.19034 116.48287,391.19034 116.48287,394.79723 120.08976,394.79723 120.08976,398.40412 123.69665,398.40412 123.69665,420.04544 120.08976,420.04544 120.08976,423.65233 116.48287,423.65233 116.48287,427.25922 105.66221,427.25922 105.66221,430.8661 91.234657,430.8661 91.234657,427.25922 z" fill="#252525" />
  <path d="M 109.26909,427.25921 C 109.26909,426.05692 109.26909,424.85463 109.26909,423.65233 110.47139,423.65233 111.67369,423.65233 112.87598,423.65233 112.87598,422.45003 112.87598,421.24774 112.87598,420.04544 114.07828,420.04544 115.28058,420.04544 116.48287,420.04544 116.48287,414.03396 116.48287,408.02248 116.48287,402.011 115.28058,402.011 114.07828,402.011 112.87598,402.011 112.87598,400.80871 112.87598,399.60641 112.87598,398.40412 109.2691,398.40412 105.66221,398.40412 102.05533,398.40412 102.05533,397.20182 102.05533,395.99953 102.05533,394.79723 98.448438,394.79723 94.841547,394.79723 91.234659,394.79723 91.234659,393.59494 91.234659,392.39264 91.234659,391.19034 88.830067,391.19034 86.425474,391.19034 84.02088,391.19034 84.02088,389.98805 84.02088,388.78575 84.02088,387.58346 82.818584,387.58346 81.616287,387.58346 80.413991,387.58346 80.413991,386.38116 80.413991,385.17886 80.413991,383.97657 79.211699,383.97657 78.009406,383.97657 76.807114,383.97657 76.807114,381.57198 76.807114,379.16738 76.807114,376.76279 75.604817,376.76279 74.402521,376.76279 73.200225,376.76279 73.200225,374.3582 73.200225,371.95361 73.200225,369.54902 74.402521,369.54902 75.604817,369.54902 76.807114,369.54902 76.807114,367.14443 76.807114,364.73983 76.807114,362.33524 78.009406,362.33524 79.211699,362.33524 80.413991,362.33524 80.413991,361.13295 80.413991,359.93065 80.413991,358.72836 81.616287,358.72836 82.818584,358.72836 84.02088,358.72836 84.02088,359.93065 84.02088,361.13295 84.02088,362.33524 82.818584,362.33524 81.616287,362.33524 80.413991,362.33524 80.413991,367.14443 80.413991,371.95361 80.413991,376.76279 81.616287,376.76279 82.818584,376.76279 84.02088,376.76279 84.02088,377.96509 84.02088,379.16738 84.02088,380.36968 85.223176,380.36968 86.425474,380.36968 87.62777,380.36968 87.62777,381.57198 87.62777,382.77427 87.62777,383.97657 90.032362,383.97657 92.436955,383.97657 94.841547,383.97657 94.841547,385.17886 94.841547,386.38116 94.841547,387.58346 98.448434,387.58346 102.05532,387.58346 105.6622,387.58346 105.6622,388.78575 105.6622,389.98805 105.6622,391.19034 109.26909,391.19034 112.87598,391.19034 116.48287,391.19034 116.48287,392.39264 116.48287,393.59494 116.48287,394.79723 117.68517,394.79723 118.88746,394.79723 120.08976,394.79723 120.08976,395.99953 120.08976,397.20182 120.08976,398.40412 121.29205,398.40412 122.49435,398.40412 123.69664,398.40412 123.69664,405.61789 123.69664,412.83167 123.69664,420.04544 122.49435,420.04544 121.29205,420.04544 120.08976,420.04544 120.08976,421.24774 120.08976,422.45003 120.08976,423.65233 118.88746,423.65233 117.68517,423.65233 116.48287,423.65233 116.48287,424.85463 116.48287,426.05692 116.48287,427.25921 114.07828,427.25921 111.67369,427.25921 109.26909,427.25921 z M 80.414092,424.97172 C 80.408585,424.27553 80.653318,423.32908 79.62845,423.65233 78.688003,423.65233 77.747558,423.65233 76.807114,423.65233 76.807114,421.24774 76.807114,418.84315 76.807114,416.43855 78.009406,416.43855 79.211699,416.43855 80.413991,416.43855 80.413991,418.84315 80.413991,421.24774 80.413991,423.65233 82.818584,423.65233 85.223176,423.65233 87.62777,423.65233 87.62777,424.85463 87.62777,426.05692 87.62777,427.25921 85.223176,427.25921 82.818584,427.25921 80.413991,427.25921 80.414024,426.49672 80.414059,425.73422 80.414092,424.97172 z M 116.48286,362.33524 C 115.28056,362.33524 114.07827,362.33524 112.87597,362.33524 112.87597,361.13295 112.87597,359.93065 112.87597,358.72835 108.06679,358.72835 103.25761,358.72835 98.448425,358.72835 98.448425,357.52606 98.448425,356.32376 98.448425,355.12147 103.25761,355.12147 108.06679,355.12147 112.87597,355.12147 112.87597,356.32376 112.87598,357.52606 112.87598,358.72836 115.28058,358.72836 117.68516,358.72835 120.08975,358.72835 120.08975,363.53754 120.08975,368.34672 120.08975,373.1559 118.88745,373.1559 117.68516,373.1559 116.48286,373.1559 116.48286,369.54902 116.48286,365.94213 116.48286,362.33524 z M 84.020882,358.72836 84.02088,355.12147 94.841547,355.12147 94.841547,358.72836 84.020882,358.72836 z" fill="#030303" />
 </svg>